<?xml version="1.0" standalone="no"?>
<!DOCTYPE svg PUBLIC "-//W3C//DTD SVG 20010904//EN"
 "http://www.w3.org/TR/2001/REC-SVG-20010904/DTD/svg10.dtd">
<svg version="1.0" xmlns="http://www.w3.org/2000/svg"
 width="1024.000000pt" height="1024.000000pt" viewBox="0 0 1024.000000 1024.000000"
 preserveAspectRatio="xMidYMid meet">

<g transform="translate(0.000000,1024.000000) scale(0.100000,-0.100000)"
fill="#000000" stroke="none">
<path d="M0 5120 l0 -5120 5120 0 5120 0 0 5120 0 5120 -5120 0 -5120 0 0
-5120z m6834 4051 c-68 -39 -168 -150 -204 -226 -97 -202 -75 -410 61 -592 46
-62 158 -143 238 -174 79 -30 227 -37 306 -14 119 34 224 105 298 200 23 30
43 53 45 51 5 -6 -29 -99 -60 -163 -68 -139 -209 -264 -355 -314 -59 -21 -87
-24 -208 -24 -126 0 -147 3 -213 27 -269 98 -432 327 -432 610 0 121 18 197
71 298 50 96 131 186 220 246 83 55 199 103 249 104 l35 0 -51 -29z m-1634
-170 c389 -88 725 -349 900 -700 64 -129 130 -383 130 -505 0 -24 3 -26 44
-26 144 0 359 -86 516 -205 76 -58 187 -177 238 -255 77 -118 132 -295 132
-424 0 -79 -25 -267 -46 -349 -17 -69 -66 -178 -88 -196 -8 -7 -2 24 17 86 30
93 31 106 31 273 1 153 -2 185 -22 253 -108 375 -425 639 -816 677 -55 6 -113
15 -128 21 -30 12 -33 21 -48 159 -29 261 -136 492 -317 680 -104 109 -187
170 -318 235 -184 90 -352 122 -565 105 -343 -26 -619 -175 -813 -435 -52 -69
-187 -324 -187 -351 0 -6 -46 -10 -112 -9 -173 0 -318 -36 -465 -115 -260
-140 -447 -398 -508 -699 -24 -114 -17 -352 13 -463 74 -274 234 -486 484
-640 91 -55 98 -62 98 -91 0 -37 -28 -96 -52 -111 -41 -25 -272 120 -399 251
-171 175 -282 391 -324 632 -22 124 -20 340 5 462 109 533 522 908 1063 964
l67 7 20 45 c77 175 245 380 411 503 150 111 372 205 556 235 119 20 367 12
483 -14z m-556 -819 c103 -59 127 -200 49 -293 -37 -43 -74 -59 -139 -59 -71
0 -131 32 -160 85 l-19 37 -88 -4 c-83 -4 -90 -6 -120 -36 l-32 -32 -5 -208
-5 -207 -28 -13 c-17 -8 -76 -16 -140 -18 -250 -10 -371 -56 -507 -193 -94
-95 -137 -169 -149 -254 -13 -96 -53 -135 -100 -99 -23 18 -26 26 -24 75 7
164 190 407 375 496 125 60 205 76 458 91 3 0 4 64 3 142 -2 161 9 218 54 281
41 59 111 86 220 87 l81 0 22 45 c12 25 34 54 49 64 59 42 144 47 205 13z
m520 -398 c14 -13 16 -50 16 -249 0 -221 -1 -235 -19 -245 -28 -14 -52 -12
-73 7 -16 15 -18 36 -18 241 0 196 2 228 17 244 20 22 56 23 77 2z m221 -229
c125 -73 186 -269 136 -433 -56 -187 -224 -301 -427 -290 -249 13 -426 239
-379 485 18 92 35 132 81 183 69 76 121 87 144 29 12 -29 11 -32 -34 -76 -80
-81 -108 -206 -69 -319 24 -71 112 -157 183 -178 157 -47 303 15 378 159 22
41 26 64 26 130 1 70 -3 87 -29 134 -16 30 -47 67 -67 84 -21 17 -38 35 -38
41 0 14 38 76 46 76 4 0 26 -11 49 -25z m-1317 -450 c247 -35 448 -111 646
-242 104 -69 240 -192 307 -276 l39 -49 0 -177 c0 -98 -3 -347 -7 -554 -6
-335 -8 -377 -22 -377 -9 0 -52 32 -96 70 -283 248 -612 394 -1040 461 -138
21 -159 29 -150 59 6 20 44 243 120 699 59 351 71 401 95 401 3 0 51 -7 108
-15z m2240 3 c10 -13 39 -164 162 -858 35 -197 43 -261 34 -270 -5 -5 -88 -20
-185 -34 -426 -62 -775 -219 -1032 -465 -40 -38 -71 -61 -76 -55 -5 5 -12 255
-16 556 l-7 547 30 43 c42 62 164 182 247 243 193 145 420 240 680 286 123 21
150 23 163 7z m-2495 -167 c6 -6 -9 -97 -47 -278 -69 -330 -157 -775 -154
-778 2 0 68 -13 148 -28 280 -51 496 -121 737 -237 156 -75 247 -133 393 -248
110 -87 158 -111 217 -112 70 0 137 33 276 137 157 118 229 164 365 232 229
115 429 177 755 236 70 12 130 25 133 28 3 2 -20 123 -50 268 -128 617 -147
706 -155 737 -10 33 5 62 32 62 7 0 22 3 34 6 18 5 25 1 32 -18 20 -53 229
-958 256 -1110 10 -51 -10 -66 -145 -112 -204 -69 -591 -207 -760 -271 -314
-119 -340 -129 -340 -135 0 -3 120 -66 268 -140 l267 -135 3 -107 c2 -88 0
-108 -11 -108 -8 0 -176 79 -373 176 -343 168 -360 176 -389 164 -159 -66
-217 -70 -317 -23 l-67 32 -68 -33 c-37 -18 -205 -97 -372 -176 -240 -113
-305 -140 -312 -129 -5 8 -9 55 -9 105 l0 91 263 138 c144 76 266 141 270 145
14 12 -597 240 -1016 379 -190 64 -221 80 -213 110 3 9 10 43 16 76 42 216
233 1056 245 1075 6 10 74 -5 88 -19z m3817 -1613 c63 -43 64 -118 4 -184 -24
-26 -37 -35 -41 -26 -12 30 -48 53 -78 50 -29 -3 -32 -8 -67 -112 -55 -164
-94 -204 -115 -123 -19 68 -70 127 -140 162 -33 17 -68 36 -77 44 -20 17 -21
53 -1 91 55 107 182 65 254 -84 l23 -46 38 80 c46 95 76 137 110 156 35 19 52
17 90 -8z m-741 -235 c17 -62 60 -194 96 -294 36 -100 63 -184 60 -187 -3 -3
-28 -5 -56 -3 -45 2 -50 1 -45 -16 7 -25 42 -384 62 -638 21 -272 24 -761 5
-864 -15 -83 -48 -187 -78 -245 l-20 -39 -6 349 c-7 401 -34 710 -127 1487
-27 222 -28 241 -14 295 18 70 86 274 89 270 2 -2 17 -54 34 -115z m1215 75
c-17 -56 -66 -97 -215 -182 -209 -119 -456 -275 -612 -386 -60 -43 -76 -33
-48 33 15 34 39 61 98 108 197 157 691 449 761 449 20 0 22 -4 16 -22z m-1527
-247 c9 -46 31 -134 49 -195 18 -60 30 -114 28 -118 -3 -4 -21 -8 -41 -8 l-36
0 7 -72 c4 -40 16 -172 26 -293 11 -121 27 -290 35 -375 9 -85 18 -243 22
-350 5 -177 4 -203 -16 -284 -71 -295 -316 -596 -583 -715 -120 -54 -240 -70
-387 -52 -119 15 -136 23 -93 45 17 9 36 16 41 16 17 0 220 89 335 146 135 68
254 146 366 240 98 82 128 118 176 211 42 79 41 77 9 428 -29 307 -47 528 -70
830 -9 116 -18 221 -20 234 -10 58 -17 242 -11 267 4 15 37 58 74 97 52 53 68
65 70 50 2 -10 10 -56 19 -102z m-1475 -100 c30 -27 33 -34 36 -106 4 -64 0
-91 -23 -161 -26 -80 -45 -107 -45 -64 0 37 -56 88 -110 99 -58 13 -186 -6
-272 -40 -152 -59 -327 -174 -463 -303 l-80 -76 41 -37 c23 -21 83 -63 135
-93 174 -102 334 -240 392 -340 14 -25 38 -94 53 -155 42 -172 85 -235 185
-270 103 -37 280 -5 392 69 68 45 87 70 128 168 36 83 47 100 62 91 6 -4 7
-34 2 -87 -10 -108 -9 -130 10 -165 46 -89 215 -80 381 20 101 62 115 36 -157
305 -314 311 -529 542 -564 606 -27 49 -28 55 -17 106 12 57 65 160 108 212
30 35 182 127 264 160 71 29 148 50 182 50 30 0 68 -40 68 -72 0 -53 -86 -228
-112 -228 -6 0 -8 12 -5 29 9 41 -12 55 -68 46 -66 -9 -143 -38 -235 -86 -80
-41 -81 -42 -63 -62 162 -190 765 -817 785 -817 19 0 67 126 77 203 25 181 7
496 -39 680 l-22 88 39 76 c21 42 43 78 49 80 19 6 65 -156 82 -287 11 -84 16
-205 16 -370 0 -281 -16 -390 -77 -513 -28 -56 -31 -69 -20 -79 25 -21 91
-142 107 -197 28 -96 12 -199 -36 -239 -14 -11 -19 -4 -43 57 -23 61 -109 200
-133 215 -5 3 -44 -30 -88 -73 -133 -130 -250 -186 -391 -186 -67 0 -87 4
-110 21 -33 25 -73 90 -73 122 0 12 -3 22 -6 22 -3 0 -33 -24 -65 -54 -110
-99 -231 -146 -374 -146 -43 0 -96 5 -118 12 -59 18 -124 82 -151 152 l-24 59
-27 -53 c-55 -109 -161 -191 -290 -225 -33 -8 -73 -15 -91 -15 -29 0 -32 -3
-43 -47 -43 -173 -211 -393 -371 -487 -140 -82 -259 -102 -405 -67 -129 31
-225 61 -225 70 0 4 41 13 91 20 131 19 219 45 339 102 201 96 435 279 491
383 l23 45 -29 23 c-80 61 -120 127 -109 176 11 48 56 140 70 146 8 3 37 -15
68 -43 67 -61 108 -75 200 -68 142 9 266 85 266 162 0 119 -154 271 -454 450
-168 101 -172 104 -186 140 -20 53 23 226 88 349 44 84 99 141 222 233 248
183 492 291 662 292 61 1 71 -2 100 -28z m2944 -159 c21 -16 64 -51 93 -79
l55 -50 -27 -55 c-25 -51 -99 -172 -117 -191 -4 -5 -49 24 -101 63 l-94 72
-22 -29 c-13 -15 -39 -58 -59 -95 -19 -38 -38 -68 -42 -67 -4 0 -52 33 -107
73 -75 55 -99 77 -97 92 7 39 91 204 104 204 18 0 121 -61 172 -102 l39 -31
18 24 c11 13 45 63 75 112 31 48 60 87 64 87 4 0 25 -13 46 -28z m-5316 -30
c0 -4 -25 -39 -56 -77 -124 -155 -202 -289 -250 -432 -21 -63 -25 -91 -22
-156 3 -73 6 -81 32 -104 45 -39 89 -27 150 39 l49 53 -7 -50 c-25 -161 -123
-283 -219 -271 -51 6 -83 28 -109 79 -33 60 -32 201 1 307 51 166 187 384 350
563 47 51 81 72 81 49z m662 -73 c20 -10 66 -41 102 -68 l66 -50 30 45 c17 24
34 44 38 44 4 0 13 14 20 30 19 43 47 39 128 -19 98 -69 113 -86 107 -113 -11
-42 -95 -188 -114 -199 -17 -9 -30 -1 -87 48 -107 94 -123 105 -138 92 -7 -6
-39 -47 -70 -90 -55 -75 -58 -78 -78 -65 -12 8 -60 41 -108 73 -63 42 -88 64
-88 79 0 11 26 66 58 122 62 111 58 109 134 71z m4666 -445 c121 -60 213 -215
258 -434 22 -111 15 -309 -14 -391 -51 -144 -153 -233 -328 -285 -115 -35
-344 -23 -436 23 l-28 14 0 -49 c0 -94 -66 -250 -148 -352 -141 -176 -389
-339 -607 -402 -112 -31 -292 -31 -422 1 -51 12 -93 26 -93 31 0 5 19 11 43
15 337 54 783 270 998 484 105 105 144 168 140 225 -4 59 -27 144 -73 268 -39
103 -40 111 -28 151 21 70 72 178 83 174 6 -2 36 -61 66 -131 66 -151 92 -185
166 -221 107 -53 308 -39 464 30 110 50 167 139 127 200 -27 41 -54 46 -137
24 -267 -70 -379 -7 -379 210 0 140 60 310 132 377 73 69 132 80 216 38z
m-2923 -164 c50 -39 91 -77 93 -85 5 -23 -97 -217 -111 -209 -7 4 -54 38 -104
76 -73 53 -91 71 -86 85 13 34 85 178 95 191 6 6 13 12 17 12 3 0 47 -32 96
-70z m-1256 18 c18 -57 31 -160 31 -248 -1 -324 -179 -517 -376 -406 -40 22
-48 35 -103 158 -17 38 -40 74 -55 83 -83 54 -266 -74 -266 -186 0 -28 7 -45
29 -67 34 -33 81 -48 288 -91 79 -16 147 -32 152 -35 16 -11 18 -71 4 -121
-32 -110 -92 -206 -187 -300 -79 -78 -105 -98 -196 -142 -151 -74 -364 -131
-561 -149 -193 -17 -367 41 -476 161 -107 116 -143 211 -143 373 0 108 14 195
46 292 51 154 162 346 186 322 6 -6 -1 -35 -21 -79 -38 -87 -87 -238 -102
-315 -40 -200 51 -380 235 -467 45 -22 106 -45 136 -52 71 -17 226 -15 334 6
108 20 305 85 414 135 79 37 201 117 202 132 0 10 -53 25 -149 43 -220 40
-289 82 -311 188 -10 50 -9 69 6 130 54 223 273 467 417 467 63 0 97 -34 159
-160 56 -113 85 -150 117 -150 42 0 93 23 103 46 16 35 -4 112 -47 180 -19 30
-35 65 -35 77 0 45 109 207 140 207 12 0 22 -11 29 -32z m1556 -1265 c-24 -41
-46 -74 -49 -74 -4 0 -20 11 -36 25 l-30 25 32 53 c17 29 38 63 45 76 l14 22
33 -26 33 -27 -42 -74z m-275 62 c25 -19 62 -47 82 -62 21 -16 38 -33 38 -40
0 -6 -10 -32 -23 -57 l-23 -45 -92 70 -92 69 26 50 c14 28 29 50 33 50 3 0 26
-16 51 -35z m-202 -137 c5 -45 -47 -80 -268 -179 -113 -50 -290 -130 -393
-176 -111 -50 -198 -83 -212 -81 l-24 3 18 41 c18 39 27 45 222 141 224 111
509 242 579 267 58 20 74 17 78 -16z m412 -83 c21 -25 3 -55 -34 -55 -24 0
-38 -7 -55 -30 -12 -17 -19 -35 -16 -40 9 -14 69 -12 137 4 60 15 68 13 68
-15 0 -24 -33 -45 -101 -65 -30 -9 -69 -29 -87 -45 -18 -16 -37 -29 -42 -29
-19 0 -9 29 17 49 14 12 24 22 22 24 -2 1 -13 7 -24 13 -29 16 -31 72 -4 128
32 69 88 98 119 61z m-2326 -219 c33 -24 78 -62 99 -83 l37 -39 -51 -75 c-28
-40 -60 -84 -72 -96 l-20 -23 -36 27 c-20 15 -62 49 -93 76 -32 26 -62 46 -68
42 -6 -4 -31 -38 -57 -77 -25 -38 -52 -72 -59 -75 -13 -5 -194 121 -194 135 0
16 107 192 116 192 14 0 151 -90 181 -119 l22 -21 63 90 c35 49 65 90 67 90 2
0 31 -20 65 -44z m3843 -911 c-2 -127 -7 -189 -17 -210 -18 -39 -50 -85 -58
-85 -7 0 -17 320 -17 525 0 99 0 101 40 165 l40 65 8 -140 c4 -77 6 -221 4
-320z m-624 364 c-32 -57 -50 -69 -267 -170 l-130 -60 83 -46 c98 -56 197
-144 252 -224 l40 -59 147 0 c201 0 191 -9 168 161 -44 326 -43 287 -9 346
l30 53 36 -124 c42 -141 43 -146 21 -146 -10 0 -14 -6 -11 -14 3 -7 9 -49 12
-93 13 -142 -21 -235 -100 -280 -36 -20 -54 -23 -173 -23 -73 0 -142 5 -152
10 -10 6 -29 28 -41 50 l-23 40 -28 -30 c-15 -17 -53 -42 -83 -56 -53 -24 -62
-25 -216 -22 l-161 3 -29 34 -28 34 -31 -26 c-47 -40 -93 -49 -222 -45 -107 3
-119 5 -142 27 -14 14 -26 30 -26 38 0 19 -14 16 -36 -8 -29 -33 -93 -59 -147
-59 -47 0 -49 -1 -67 -42 -60 -136 -197 -218 -316 -191 -41 10 -173 81 -174
95 0 3 26 4 58 1 113 -10 296 41 367 102 l40 34 -40 2 c-22 0 -49 2 -60 3 -11
1 -33 3 -48 4 -16 1 -41 15 -58 31 -25 25 -29 37 -29 83 1 99 65 188 135 188
58 0 121 -71 140 -157 l7 -33 65 0 c49 0 75 6 104 22 35 19 42 30 60 90 13 44
25 68 34 68 18 0 19 -34 3 -97 -10 -43 -10 -47 12 -65 19 -15 41 -18 160 -18
167 0 192 11 225 100 24 65 32 80 47 80 10 0 6 -75 -7 -132 -11 -44 17 -51
210 -51 172 -1 225 8 225 36 0 20 -107 101 -212 160 -50 29 -96 59 -101 69
-15 23 18 93 69 144 52 53 437 251 442 228 2 -8 -9 -37 -25 -65z m-1878 -79
c8 -13 -53 -110 -69 -110 -6 0 -29 15 -51 34 l-39 33 -28 -38 c-16 -22 -33
-39 -39 -39 -11 0 -95 55 -103 68 -3 5 11 32 30 60 l35 52 53 -39 53 -40 32
45 32 44 44 -30 c24 -17 47 -35 50 -40z m1141 -29 l32 -31 37 41 37 41 39 -38
c21 -21 39 -42 39 -46 0 -5 -18 -28 -40 -51 l-39 -42 -39 44 -38 44 -30 -36
c-16 -20 -34 -37 -39 -37 -13 0 -85 59 -85 69 0 5 14 27 30 50 34 46 41 46 96
-8z m-411 -31 c7 -11 -15 -54 -48 -94 l-24 -29 -42 34 c-47 37 -42 39 -85 -26
-13 -19 -15 -19 -65 15 -28 19 -51 39 -51 43 0 13 51 97 59 97 4 0 26 -16 48
-35 23 -19 45 -35 50 -35 4 0 24 22 43 49 l35 48 37 -29 c21 -16 40 -33 43
-38z m-1137 -97 c2 -12 -6 -40 -18 -62 -18 -36 -23 -40 -39 -29 -22 13 -91 -8
-153 -48 -66 -42 -44 -82 60 -103 87 -18 122 -36 122 -64 0 -40 -67 -162 -111
-202 -23 -21 -67 -49 -98 -64 -49 -23 -68 -26 -161 -26 -147 0 -185 18 -230
109 -31 63 -33 70 -28 150 5 67 12 99 38 155 54 118 82 117 40 -1 -42 -119
-36 -179 23 -235 17 -17 50 -36 72 -44 54 -17 180 -14 235 5 43 16 144 76 138
82 -2 1 -37 10 -78 18 -103 21 -124 46 -118 131 3 33 15 79 26 102 52 100 270
199 280 126z m390 -128 c85 -71 103 -256 37 -385 -30 -59 -94 -123 -151 -151
-57 -27 -120 -22 -191 15 -50 26 -83 50 -83 58 0 3 42 8 93 11 141 9 255 56
302 125 14 20 23 37 22 39 -2 1 -27 -4 -57 -12 -67 -18 -119 -7 -149 32 -46
58 -13 194 63 261 44 38 74 40 114 7z m2242 -380 c20 -24 8 -50 -21 -47 -28 3
-55 -20 -44 -38 9 -15 67 -12 109 5 33 14 37 14 43 -2 8 -21 -46 -68 -89 -77
-16 -3 -43 -17 -60 -31 -47 -40 -66 -31 -26 13 21 22 22 24 5 33 -32 18 -18
99 24 138 27 25 42 26 59 6z m-2896 -177 l36 -33 -31 -47 -31 -48 -40 32 c-32
25 -42 29 -48 17 -32 -54 -35 -55 -79 -26 -22 15 -41 31 -41 37 0 16 42 80 53
80 5 0 25 -11 43 -25 l33 -25 27 35 c14 19 30 35 34 35 3 0 23 -15 44 -32z"/>
<path d="M4505 8065 c-41 -40 -30 -92 25 -115 28 -11 34 -11 58 7 44 33 42
100 -3 121 -38 17 -53 15 -80 -13z"/>
<path d="M7868 3864 c-33 -17 -48 -43 -48 -82 0 -64 77 -88 224 -72 50 6 94
14 99 19 13 13 -82 104 -134 129 -52 25 -102 28 -141 6z"/>
<path d="M4740 1270 c-20 -20 -21 -23 -6 -38 17 -18 146 -31 146 -15 0 18 -56
63 -87 69 -24 5 -36 1 -53 -16z"/>
<path d="M4239 1299 c-39 -39 -22 -54 64 -57 42 -2 77 1 77 6 0 4 -14 23 -31
40 -37 38 -79 42 -110 11z"/>
</g>
</svg>
