<svg xmlns="http://www.w3.org/2000/svg" viewBox="0 0 24 24" preserveAspectRatio="xMidYMid meet"><path fill="#606a89" d="M14 2c3.731 2.382 3.731 2.382 5 5 .213 2.628.13 5.071-.117 7.695-.12 2.391-.12 2.391 1.61 3.985L22 20v2l-1.75-.937c-3.515-1.66-5.75-2.1-9.687-1.813-2.86.03-4.333-.422-6.5-2.312C2.29 14.86 1.595 13.221 1.374 10.5c.276-3.412 1.478-5.406 4.066-7.613C8.323 1.247 10.83 1.133 14 2M6.25 6.188c-1.936 2.064-2.242 2.487-2.312 5.437C5.226 14.505 6.176 15.588 9 17c3.2-.078 4.531-.563 6.875-2.75 1.326-2.213 1.326-2.213 1.063-4.812C15.804 6.49 14.735 5.528 12 4c-3.23 0-3.562.096-5.75 2.188"/><path fill="#606a88" d="M3 12h2c1.29 1.313 1.29 1.313 2.625 3l1.352 1.688L10 18l-3 1c-1.422-.926-1.422-.926-2.75-2.312l-1.36-1.364L2 14z"/><path fill="#606988" d="M11 2q2.514.428 5 1c-.75 1.688-.75 1.688-2 3-2.187-1.25-2.187-1.25-4-3z"/></svg>